<svg id="visual" viewBox="0 0 960 300" width="960" height="300" xmlns="http://www.w3.org/2000/svg" xmlns:xlink="http://www.w3.org/1999/xlink" version="1.1"><rect x="0" y="0" width="960" height="300" fill="#f8f8f8"></rect><path d="M0 210L22.8 216C45.7 222 91.3 234 137 229.7C182.7 225.3 228.3 204.7 274 192.8C319.7 181 365.3 178 411.2 181.2C457 184.3 503 193.7 548.8 201.3C594.7 209 640.3 215 686 215C731.7 215 777.3 209 823 205.3C868.7 201.7 914.3 200.3 937.2 199.7L960 199L960 0L937.2 0C914.3 0 868.7 0 823 0C777.3 0 731.7 0 686 0C640.3 0 594.7 0 548.8 0C503 0 457 0 411.2 0C365.3 0 319.7 0 274 0C228.3 0 182.7 0 137 0C91.3 0 45.7 0 22.8 0L0 0Z" fill="#cdedf7"></path><path d="M0 204L22.8 199C45.7 194 91.3 184 137 170.5C182.7 157 228.3 140 274 140.2C319.7 140.3 365.3 157.7 411.2 170.8C457 184 503 193 548.8 189.8C594.7 186.7 640.3 171.3 686 159C731.7 146.7 777.3 137.3 823 145.2C868.7 153 914.3 178 937.2 190.5L960 203L960 0L937.2 0C914.3 0 868.7 0 823 0C777.3 0 731.7 0 686 0C640.3 0 594.7 0 548.8 0C503 0 457 0 411.2 0C365.3 0 319.7 0 274 0C228.3 0 182.7 0 137 0C91.3 0 45.7 0 22.8 0L0 0Z" fill="#bae4fb"></path><path d="M0 94L22.8 94.7C45.7 95.3 91.3 96.7 137 106C182.7 115.3 228.3 132.7 274 133.2C319.7 133.7 365.3 117.3 411.2 107.5C457 97.7 503 94.3 548.8 95.2C594.7 96 640.3 101 686 104.3C731.7 107.7 777.3 109.3 823 111.2C868.7 113 914.3 115 937.2 116L960 117L960 0L937.2 0C914.3 0 868.7 0 823 0C777.3 0 731.7 0 686 0C640.3 0 594.7 0 548.8 0C503 0 457 0 411.2 0C365.3 0 319.7 0 274 0C228.3 0 182.7 0 137 0C91.3 0 45.7 0 22.8 0L0 0Z" fill="#afd9ff"></path><path d="M0 59L22.8 61.8C45.7 64.7 91.3 70.3 137 70C182.7 69.7 228.3 63.3 274 66.7C319.7 70 365.3 83 411.2 92.5C457 102 503 108 548.8 105C594.7 102 640.3 90 686 86.7C731.7 83.3 777.3 88.7 823 91.7C868.7 94.7 914.3 95.3 937.2 95.7L960 96L960 0L937.2 0C914.3 0 868.7 0 823 0C777.3 0 731.7 0 686 0C640.3 0 594.7 0 548.8 0C503 0 457 0 411.2 0C365.3 0 319.7 0 274 0C228.3 0 182.7 0 137 0C91.3 0 45.7 0 22.8 0L0 0Z" fill="#afcbff"></path><path d="M0 58L22.8 54.2C45.7 50.3 91.3 42.7 137 38.2C182.7 33.7 228.3 32.3 274 35C319.7 37.7 365.3 44.3 411.2 46.3C457 48.3 503 45.7 548.8 47.8C594.7 50 640.3 57 686 60.3C731.7 63.7 777.3 63.3 823 59.5C868.7 55.7 914.3 48.3 937.2 44.7L960 41L960 0L937.2 0C914.3 0 868.7 0 823 0C777.3 0 731.7 0 686 0C640.3 0 594.7 0 548.8 0C503 0 457 0 411.2 0C365.3 0 319.7 0 274 0C228.3 0 182.7 0 137 0C91.3 0 45.7 0 22.8 0L0 0Z" fill="#bbbbff"></path></svg>