<?xml version="1.0" standalone="no"?>
<svg xmlns:xlink="http://www.w3.org/1999/xlink" id="wave" style="transform:rotate(0deg); transition: 0.3s" viewBox="0 0 1440 490" version="1.1" xmlns="http://www.w3.org/2000/svg"><defs><linearGradient id="sw-gradient-0" x1="0" x2="0" y1="1" y2="0"><stop stop-color="rgba(205, 237, 247, 1)" offset="0%"/><stop stop-color="rgba(122.256, 210.289, 237.8, 1)" offset="100%"/></linearGradient></defs><path style="transform:translate(0, 0px); opacity:1" fill="url(#sw-gradient-0)" d="M0,98L48,89.8C96,82,192,65,288,98C384,131,480,212,576,253.2C672,294,768,294,864,269.5C960,245,1056,196,1152,179.7C1248,163,1344,180,1440,220.5C1536,261,1632,327,1728,351.2C1824,376,1920,359,2016,359.3C2112,359,2208,376,2304,343C2400,310,2496,229,2592,179.7C2688,131,2784,114,2880,163.3C2976,212,3072,327,3168,310.3C3264,294,3360,147,3456,130.7C3552,114,3648,229,3744,236.8C3840,245,3936,147,4032,138.8C4128,131,4224,212,4320,236.8C4416,261,4512,229,4608,220.5C4704,212,4800,229,4896,245C4992,261,5088,278,5184,277.7C5280,278,5376,261,5472,253.2C5568,245,5664,245,5760,245C5856,245,5952,245,6048,277.7C6144,310,6240,376,6336,334.8C6432,294,6528,147,6624,89.8C6720,33,6816,65,6864,81.7L6912,98L6912,490L6864,490C6816,490,6720,490,6624,490C6528,490,6432,490,6336,490C6240,490,6144,490,6048,490C5952,490,5856,490,5760,490C5664,490,5568,490,5472,490C5376,490,5280,490,5184,490C5088,490,4992,490,4896,490C4800,490,4704,490,4608,490C4512,490,4416,490,4320,490C4224,490,4128,490,4032,490C3936,490,3840,490,3744,490C3648,490,3552,490,3456,490C3360,490,3264,490,3168,490C3072,490,2976,490,2880,490C2784,490,2688,490,2592,490C2496,490,2400,490,2304,490C2208,490,2112,490,2016,490C1920,490,1824,490,1728,490C1632,490,1536,490,1440,490C1344,490,1248,490,1152,490C1056,490,960,490,864,490C768,490,672,490,576,490C480,490,384,490,288,490C192,490,96,490,48,490L0,490Z"/></svg>