<svg id="visual" viewBox="0 0 960 540" width="960" height="540" xmlns="http://www.w3.org/2000/svg" xmlns:xlink="http://www.w3.org/1999/xlink" version="1.1"><rect x="0" y="0" width="960" height="540" fill="#f8f8f8"></rect><path d="M0 100L22.8 132.2C45.7 164.3 91.3 228.7 137 244C182.7 259.3 228.3 225.7 274 200C319.7 174.3 365.3 156.7 411.2 141.5C457 126.3 503 113.7 548.8 138.7C594.7 163.7 640.3 226.3 686 288.5C731.7 350.7 777.3 412.3 823 418.5C868.7 424.7 914.3 375.3 937.2 350.7L960 326L960 541L937.2 541C914.3 541 868.7 541 823 541C777.3 541 731.7 541 686 541C640.3 541 594.7 541 548.8 541C503 541 457 541 411.2 541C365.3 541 319.7 541 274 541C228.3 541 182.7 541 137 541C91.3 541 45.7 541 22.8 541L0 541Z" fill="#BBBBFF" stroke-linecap="round" stroke-linejoin="miter"></path></svg>