<svg id="visual" viewBox="0 0 960 300" width="960" height="300" xmlns="http://www.w3.org/2000/svg" xmlns:xlink="http://www.w3.org/1999/xlink" version="1.1"><rect x="0" y="0" width="960" height="300" fill="#f8f8f8"></rect><path d="M0 151L22.8 161.7C45.7 172.3 91.3 193.7 137 201.8C182.7 210 228.3 205 274 194.7C319.7 184.3 365.3 168.7 411.2 162.5C457 156.3 503 159.7 548.8 170.5C594.7 181.3 640.3 199.7 686 196.2C731.7 192.7 777.3 167.3 823 160.5C868.7 153.7 914.3 165.3 937.2 171.2L960 177L960 0L937.2 0C914.3 0 868.7 0 823 0C777.3 0 731.7 0 686 0C640.3 0 594.7 0 548.8 0C503 0 457 0 411.2 0C365.3 0 319.7 0 274 0C228.3 0 182.7 0 137 0C91.3 0 45.7 0 22.8 0L0 0Z" fill="#BBBBFF" stroke-linecap="round" stroke-linejoin="miter"></path></svg>